<svg width="524px" height="98px" viewBox="0 0 524 98" version="1.1" xmlns="http://www.w3.org/2000/svg" xmlns:xlink="http://www.w3.org/1999/xlink">
  <g id="techshed_logotype" fill="#FFFFFF">
      <path d="M101.73,58.796 L101.73,42.419 C101.73,40.519 101.443,39.155 100.865,38.326 C100.285,37.5 99.085,37.083 97.266,37.083 L77.416,37.083 C75.099,37.083 73.652,37.703 73.074,38.947 C72.744,39.688 72.576,40.85 72.576,42.419 L72.576,58.796 L101.73,58.796 L101.73,58.796 Z M112.9,68.599 L72.576,68.599 L72.576,82.49 C72.576,84.893 72.89,86.379 73.51,86.955 C74.13,87.537 75.594,87.828 77.913,87.828 L109.174,87.828 L109.174,98 L69.725,98 C67.16,98 65.092,97.045 63.52,95.146 C62.114,93.494 61.413,91.469 61.413,89.068 L61.413,36.218 C61.413,30.258 64.099,27.282 69.476,27.282 L104.71,27.282 C107.273,27.282 109.279,28.11 110.725,29.765 C112.172,31.42 112.9,33.533 112.9,36.094 L112.9,68.599 L112.9,68.599 Z M175.551,98 L139.695,98 C136.471,98 133.884,97.069 131.941,95.211 C130,93.348 129.027,90.968 129.027,88.077 L129.027,37.457 C129.027,34.728 129.917,32.351 131.694,30.324 C133.472,28.294 136.139,27.282 139.695,27.282 L175.551,27.282 L175.551,38.446 L145.651,38.446 C142.179,38.446 140.439,40.023 140.439,43.164 L140.439,81.625 C140.439,83.607 140.816,84.973 141.555,85.718 C142.3,86.463 143.665,86.836 145.651,86.836 L175.551,86.836 L175.551,98 M245.273,98 L233.858,98 L233.858,42.918 C233.858,39.855 232.288,38.326 229.142,38.326 L201.229,38.326 L201.229,98 L189.816,98 L189.816,0.237 L201.229,0.237 L201.229,27.282 L237.21,27.282 C242.582,27.282 245.273,29.932 245.273,35.223 L245.273,98 M311.893,92.045 C311.893,96.016 309.782,98 305.57,98 L262.514,98 L262.514,87.208 L296.76,87.208 C299.24,87.208 300.48,85.923 300.48,83.363 L300.48,70.831 C300.48,68.516 299.24,67.353 296.76,67.353 L268.474,67.353 C263.761,67.353 261.398,65.29 261.398,61.155 L261.398,34.233 C261.398,29.6 263.761,27.282 268.474,27.282 L310.157,27.282 L310.157,38.079 L276.165,38.079 C274.672,38.079 273.743,38.264 273.371,38.639 C273.001,39.007 272.815,39.729 272.815,40.807 L272.815,54.083 C272.815,56.067 273.929,57.062 276.165,57.062 L305.57,57.062 C307.387,57.062 308.897,57.661 310.094,58.86 C311.295,60.058 311.893,61.484 311.893,63.139 L311.893,92.045 M383.478,98 L372.065,98 L372.065,42.918 C372.065,39.855 370.493,38.326 367.351,38.326 L339.435,38.326 L339.435,98 L328.02,98 L328.02,0.237 L339.435,0.237 L339.435,27.282 L375.414,27.282 C380.791,27.282 383.478,29.932 383.478,35.223 L383.478,98 M439.92,58.796 L439.92,42.419 C439.92,40.519 439.638,39.155 439.056,38.326 C438.478,37.5 437.276,37.083 435.46,37.083 L415.606,37.083 C413.291,37.083 411.842,37.703 411.267,38.947 C410.937,39.688 410.765,40.85 410.765,42.419 L410.765,58.796 L439.92,58.796 L439.92,58.796 Z M451.091,68.599 L410.765,68.599 L410.765,82.49 C410.765,84.893 411.083,86.379 411.699,86.955 C412.321,87.537 413.786,87.828 416.103,87.828 L447.367,87.828 L447.367,98 L407.915,98 C405.349,98 403.28,97.045 401.711,95.146 C400.304,93.494 399.602,91.469 399.602,89.068 L399.602,36.218 C399.602,30.258 402.289,27.282 407.664,27.282 L442.903,27.282 C445.464,27.282 447.469,28.11 448.917,29.765 C450.366,31.42 451.091,33.533 451.091,36.094 L451.091,68.599 L451.091,68.599 Z M512.746,87.456 L512.746,38.446 L483.47,38.446 C481.319,38.446 479.95,38.904 479.375,39.814 C478.88,40.392 478.628,41.722 478.628,43.782 L478.628,81.746 C478.628,83.816 478.88,85.221 479.375,85.965 C480.118,86.955 481.484,87.456 483.47,87.456 L512.746,87.456 L512.746,87.456 Z M523.919,0.237 L523.919,98 L475.53,98 C472.967,98 470.943,97.131 469.453,95.394 C467.963,93.658 467.223,91.385 467.223,88.569 L467.223,36.094 C467.223,33.533 467.963,31.42 469.453,29.765 C470.943,28.11 472.967,27.282 475.53,27.282 L512.501,27.282 L512.501,0.237 L523.919,0.237 L523.919,0.237 Z M49.627,98 L26.181,98 C23.283,98 20.968,97.174 19.232,95.52 C17.496,93.867 16.627,91.674 16.627,88.944 L16.627,38.446 L0,38.446 L0,27.282 L16.627,27.282 L16.627,9.916 L28.041,9.916 L28.041,27.282 L49.627,27.282 L49.627,38.446 L28.041,38.446 L28.041,82.861 C28.041,84.352 28.27,85.391 28.721,85.965 C29.177,86.549 30.149,86.836 31.639,86.836 L49.627,86.836 L49.627,98"></path>
  </g>
</svg>
